<?xml version="1.0" encoding="iso-8859-1"?>
<!-- Generator: Adobe Illustrator 21.0.0, SVG Export Plug-In . SVG Version: 6.00 Build 0)  -->
<svg xmlns="http://www.w3.org/2000/svg" xmlns:xlink="http://www.w3.org/1999/xlink" version="1.1" id="Capa_1" x="0px" y="0px" viewBox="0 0 509.478 509.478" style="enable-background:new 0 0 509.478 509.478;" xml:space="preserve" width="512" height="512">
<g>
	<path d="M254.739,509.478c-62.861,0-114.002-51.141-114.002-114.002V84.329C140.737,37.83,178.567,0,225.066,0   c46.5,0,84.33,37.83,84.33,84.329v252.33c0,29.957-24.371,54.328-54.328,54.328c-29.956,0-54.327-24.371-54.327-54.328V151.494h30   v185.166c0,13.414,10.913,24.328,24.327,24.328c13.415,0,24.328-10.914,24.328-24.328V84.329c0-29.957-24.372-54.329-54.33-54.329   c-29.957,0-54.329,24.372-54.329,54.329v311.146c0,46.319,37.684,84.002,84.002,84.002s84.002-37.683,84.002-84.002V155.993h30   v239.482C368.741,458.336,317.6,509.478,254.739,509.478z"/>
</g>
</svg>
